<?xml version="1.0" standalone="no"?>
<!DOCTYPE svg PUBLIC "-//W3C//DTD SVG 1.1//EN" "http://www.w3.org/Graphics/SVG/1.1/DTD/svg11.dtd">
<!--Generator: Xara Designer (www.xara.com), SVG filter version: 6.4.0.3-->
<svg fill="none" fill-rule="evenodd" stroke="black" stroke-width="0.501" stroke-linejoin="bevel" stroke-miterlimit="10" font-family="Times New Roman" font-size="16" style="font-variant-ligatures:none" xmlns:xlink="http://www.w3.org/1999/xlink" xmlns="http://www.w3.org/2000/svg" version="1.1" overflow="visible" width="202.37pt" height="225.163pt" viewBox="0 -225.163 202.37 225.163">
 <defs>
	</defs>
 <g id="Layer 1" transform="scale(1 -1)">
  <g id="Group" fill-rule="nonzero" stroke-linejoin="miter" stroke="none" stroke-width="0.781">
   <path d="M 99.467,0.012 L 18.093,22.602 L -0.042,225.998 L 199.222,225.998 L 181.068,22.635 L 99.467,0.012 L 99.467,0.012 Z" fill="#264de4" marker-start="none" marker-end="none"/>
   <path d="M 165.528,35.584 L 181.041,209.368 L 99.589,209.368 L 99.589,17.303 L 165.528,35.584 L 165.528,35.584 Z" fill="#2965f1" marker-start="none" marker-end="none"/>
   <path d="M 41.53,133.93 L 43.766,108.985 L 99.589,108.985 L 99.589,133.93 L 41.53,133.93 L 41.53,133.93 Z" fill="#ebebeb" marker-start="none" marker-end="none"/>
   <path d="M 37.037,184.421 L 39.305,159.476 L 99.589,159.476 L 99.589,184.421 L 37.037,184.421 L 37.037,184.421 Z" fill="#ebebeb" marker-start="none" marker-end="none"/>
   <path d="M 99.589,69.143 L 99.48,69.115 L 71.698,76.617 L 69.922,96.512 L 44.881,96.512 L 48.376,57.345 L 99.476,43.159 L 99.589,43.19 L 99.589,69.143 L 99.589,69.143 Z" fill="#ebebeb" marker-start="none" marker-end="none"/>
   <path d="M 157.49,133.93 L 161.993,184.421 L 99.504,184.421 L 99.504,159.476 L 134.655,159.476 L 132.385,133.93 L 99.504,133.93 L 99.504,108.985 L 130.221,108.985 L 127.326,76.632 L 99.504,69.124 L 99.504,43.171 L 150.644,57.345 L 151.019,61.559 L 156.882,127.232 L 157.49,133.93 L 157.49,133.93 Z" fill="#ffffff" marker-start="none" marker-end="none"/>
  </g>
 </g>
</svg>
