<?xml version="1.0" standalone="no"?>
<!DOCTYPE svg PUBLIC "-//W3C//DTD SVG 1.1//EN" "http://www.w3.org/Graphics/SVG/1.1/DTD/svg11.dtd">
<!--Generator: Xara Designer (www.xara.com), SVG filter version: 6.4.0.3-->
<svg fill="none" fill-rule="evenodd" stroke="black" stroke-width="0.501" stroke-linejoin="bevel" stroke-miterlimit="10" font-family="Times New Roman" font-size="16" style="font-variant-ligatures:none" xmlns:xlink="http://www.w3.org/1999/xlink" xmlns="http://www.w3.org/2000/svg" version="1.1" overflow="visible" width="202.37pt" height="225.163pt" viewBox="0 -225.163 202.37 225.163">
 <defs>
	</defs>
 <g id="Layer 1" transform="scale(1 -1)">
  <path d="M 198.413,225.281 L 180.364,23.092 L 99.235,0.6 L 18.33,23.059 L 0.3,225.281 L 198.413,225.281 L 198.413,225.281 Z" fill="#e44d26" stroke="none" stroke-width="0.776" fill-rule="nonzero" stroke-linejoin="miter" marker-start="none" marker-end="none"/>
  <path d="M 99.356,17.791 L 164.913,35.966 L 180.337,208.747 L 99.356,208.747 L 99.356,17.791 L 99.356,17.791 Z" fill="#f16529" stroke="none" stroke-width="0.776" fill-rule="nonzero" stroke-linejoin="miter" marker-start="none" marker-end="none"/>
  <path d="M 64.27,159.143 L 99.356,159.143 L 99.356,183.944 L 37.165,183.944 L 37.76,177.29 L 43.855,108.944 L 99.356,108.944 L 99.356,133.745 L 66.537,133.745 L 64.27,159.143 L 64.27,159.143 Z" stroke="none" fill="#ebebeb" stroke-width="0.776" fill-rule="nonzero" stroke-linejoin="miter" marker-start="none" marker-end="none"/>
  <path d="M 69.86,96.543 L 44.963,96.543 L 48.438,57.601 L 99.242,43.497 L 99.356,43.528 L 99.356,69.332 L 99.247,69.304 L 71.626,76.763 L 69.86,96.543 L 69.86,96.543 Z" stroke="none" fill="#ebebeb" stroke-width="0.776" fill-rule="nonzero" stroke-linejoin="miter" marker-start="none" marker-end="none"/>
  <path d="M 99.271,108.944 L 129.811,108.944 L 126.932,76.778 L 99.271,69.313 L 99.271,43.509 L 150.116,57.601 L 150.488,61.791 L 156.317,127.085 L 156.922,133.745 L 99.271,133.745 L 99.271,108.944 L 99.271,108.944 Z" stroke="none" fill="#ffffff" stroke-width="0.776" fill-rule="nonzero" stroke-linejoin="miter" marker-start="none" marker-end="none"/>
  <path d="M 99.271,159.203 L 99.271,159.143 L 159.179,159.143 L 159.676,164.718 L 160.806,177.29 L 161.399,183.944 L 99.271,183.944 L 99.271,159.203 L 99.271,159.203 Z" stroke="none" fill="#ffffff" stroke-width="0.776" fill-rule="nonzero" stroke-linejoin="miter" marker-start="none" marker-end="none"/>
 </g>
</svg>
